<?xml version="1.0" encoding="UTF-8"?><svg id="Layer_2" xmlns="http://www.w3.org/2000/svg" viewBox="0 0 103.47 117.84"><defs><style>.cls-1{fill:#304553;}.cls-2{fill:#324453;}.cls-3{fill:#fff;}.cls-4{fill:#8ea3b2;}</style></defs><g id="Truth"><rect class="cls-2" width="103.47" height="117.84" rx="11.53" ry="11.53"/><ellipse class="cls-4" cx="54.89" cy="78.16" rx="15.98" ry="9.7" transform="translate(-15.83 13.97) rotate(-12.69)"/><path class="cls-1" d="M39.42,78.53s6.77,2.98,14.38-.08l-12.78-3.08s-1.2,1.56-1.6,3.16Z"/><circle class="cls-3" cx="51.83" cy="58.53" r="20.01"/><path class="cls-4" d="M57.06,47.65c.35-2.29.67-5.04.68-7.49,0-2.16-1.2-4.14-3.11-5.14h0c-4-2.1-8.76.98-8.47,5.49.12,1.94.2,4.09.21,6.36,0,2.76,2.11,5.07,4.86,5.33h0c2.85.28,5.41-1.72,5.84-4.55Z"/><path class="cls-4" d="M49.98,50.53c-.6-2.24-1.41-4.89-2.38-7.13-.86-1.98-2.76-3.31-4.91-3.47h0c-4.5-.32-7.63,4.41-5.56,8.43.89,1.73,1.82,3.66,2.74,5.74,1.11,2.53,3.97,3.8,6.59,2.94h0c2.72-.89,4.26-3.75,3.52-6.51Z"/><path class="cls-3" d="M46.62,44.27c-.6-2.24-1.41-4.89-2.38-7.13-.86-1.98-2.76-3.31-4.91-3.47h0c-4.5-.32-6.73,4.06-5.56,8.43.49,1.83.96,4.15,1.49,6.56.6,2.7,5.21,2.98,7.84,2.12h0c2.72-.89,4.26-3.75,3.52-6.51Z"/><path class="cls-3" d="M55.93,42.9c.35-2.29.67-5.04.68-7.49,0-2.16-1.2-4.14-3.11-5.14h0c-4-2.1-8.76.98-8.47,5.49.12,1.94.2,4.09.21,6.36,0,2.76,2.11,5.07,4.86,5.33h0c2.85.28,5.41-1.72,5.84-4.55Z"/><path class="cls-4" d="M38.23,67.02s15.01.19,12.49-11.98l-15.34,6.63,2.85,5.35Z"/><path class="cls-4" d="M68.27,47.1c-1.45.54-2.7,1.66-3.34,3.31-.7,1.82-1.53,3.79-2.48,5.86-1.15,2.51-.21,5.49,2.17,6.88,2.34,1.37,5.31.77,6.96-1.34.53-3.16.31-6.5-.8-9.74-.62-1.81-1.47-3.47-2.51-4.97Z"/><path class="cls-4" d="M65.26,51.83c.8-2.18,1.65-4.81,2.15-7.21.43-2.12-.35-4.3-2.03-5.66h0c-3.51-2.85-8.78-.77-9.39,3.7-.26,1.93-.61,4.04-1.05,6.28-.54,2.71,1.07,5.39,3.71,6.19h0c2.74.83,5.64-.62,6.62-3.31Z"/><path class="cls-4" d="M67.62,61.25c-2.02,3.76-4.58,5.55-6.52,6.39-1.29.57-2.8-.09-3.32-1.4-.1-.26-.22-.5-.35-.73-.73-1.29-2.57-1.27-3.32.01-1.73,2.95-4.45,3.94-9.38,3.17-3.73-.58-6.6-4.14-7.54-6.25l-8.17-1.62c.15.31,3.97,5.1,5.18,7.17,0,.02.01.03.01.03h0c4.55,8.46,14.67,12.91,24.07,9.71,8.36-2.85,13.61-10.95,13.56-19.32h0c.29-2.1.75-4.18,1.29-6.14-1.67,1.75-3.13,4.53-5.52,8.97Z"/><path class="cls-3" d="M65.09,46.95c.8-2.18,1.65-4.81,2.15-7.21.43-2.12-.35-4.3-2.03-5.66h0c-3.51-2.85-8.78-.77-9.39,3.7-.26,1.93-.61,4.04-1.05,6.28-.54,2.71,1.07,5.39,3.71,6.19h0c2.74.83,5.64-.62,6.62-3.31Z"/><path class="cls-3" d="M46.98,50.23c-3.25-.53-7.9-1.13-11.93-1.1-2.78.02-5.32,1.59-6.57,4.07h0c-2.61,5.15,1.4,11.2,7.15,10.76,1.89-.14,3.92-.26,6.06-.33,4.75-.15,8.64-3.85,9.04-8.59h0c.2-2.34-1.43-4.44-3.75-4.81Z"/><path class="cls-3" d="M71.91,55c1.2-1.99,2.53-4.41,3.47-6.67.83-2,.47-4.29-.92-5.94h0c-2.9-3.46-8.47-2.42-9.92,1.86-.63,1.84-1.36,3.86-2.22,5.96-1.04,2.56.03,5.49,2.47,6.78h0c2.53,1.34,5.66.46,7.13-1.99Z"/></g></svg>