<?xml version="1.0" encoding="UTF-8"?><svg id="Layer_2" xmlns="http://www.w3.org/2000/svg" viewBox="0 0 103.47 117.84"><defs><style>.cls-1{fill:#304553;}.cls-2{fill:#324453;}.cls-3{fill:#fff;}.cls-4{fill:#8ea3b2;}.cls-5{fill:#c5d3dd;}</style></defs><g id="Truth"><rect class="cls-2" width="103.47" height="117.84" rx="11.53" ry="11.53"/><ellipse class="cls-4" cx="65.92" cy="77.28" rx="13.96" ry="8.47" transform="translate(-33.9 58.5) rotate(-38.88)"/><path class="cls-1" d="M53.94,83.53s6.45-.27,11.24-5.61l-11.2,2.51s-.34,1.68-.04,3.1Z"/><circle class="cls-3" cx="55.96" cy="63.06" r="17.48"/><circle class="cls-3" cx="30.43" cy="46.84" r="4.42"/><circle class="cls-3" cx="30.52" cy="69.05" r="5.07"/><circle class="cls-3" cx="39.17" cy="36.91" r="4.14"/><circle class="cls-3" cx="52.41" cy="33.61" r="4.01"/><path class="cls-3" d="M31.34,74.05l-1.38-10.04s5.6-1.12,11.69-1.12l4.16,14.41s-4.65-4.32-14.48-3.26Z"/><path class="cls-3" d="M27.31,49.97s7.77,7.25,11.86,13.21l5.56-10.91s-5.13-2.91-11.17-8.55l-6.25,6.25Z"/><path class="cls-3" d="M38.74,38.02l-3.14.98s2.15,5.86,6.85,14.33l10.61-5.95c-3.84-4.2-7.42-8.53-10.63-13.02l-3.7,3.66Z"/><path class="cls-3" d="M48.5,34.52s1.28,8.93,3.7,12.59l11.3,1.34s-4.25-6.82-7.27-16.05l-7.73,2.12Z"/><path class="cls-5" d="M61.76,48.57c-.47-3.94-.42-7.76.22-11.46l7.33.41s-.5,9.33,2.3,17.75c-2.63-3.75-5.78-6.28-9.85-6.7Z"/><circle class="cls-3" cx="65.63" cy="37.56" r="3.68"/><path class="cls-4" d="M69.38,59.11c-.25,6.95-4.62,9.24-4.62,9.24-3.85-6.85-9.51-6.29-9.51-6.29,4.42,3.18,4.16,10.12-.94,11.7-3.15.98-6.77-.7-8.32-1.99-2.34-1.95-10.22-2.12-13.38-.64-1.62.76-1.5,1.93-.99,2.88,7.4-.72,11.81,1.6,13.45,2.72.24.19.47.37.72.54.01.01.02.02.02.02h0c6.83,4.87,16.46,4.25,22.59-1.88,5.46-5.46,6.46-13.62,3.2-20.16h0c-.59-1.76-1.03-3.56-1.36-5.31-.63,2.02-.71,4.76-.87,9.16Z"/></g></svg>