<?xml version="1.0" encoding="UTF-8"?><svg id="Layer_2" xmlns="http://www.w3.org/2000/svg" viewBox="0 0 103.47 117.84"><defs><style>.cls-1{fill:#304553;}.cls-2{fill:#324453;}.cls-3{fill:#fff;}.cls-4{fill:#8ea3b2;}.cls-5{fill:#c5d3dd;}</style></defs><g id="Truth"><rect class="cls-2" width="103.47" height="117.84" rx="11.53" ry="11.53"/><ellipse class="cls-4" cx="42.26" cy="80.41" rx="8.97" ry="14.78" transform="translate(-48.26 87.93) rotate(-67.03)"/><path class="cls-1" d="M30.44,72.34s3.48,5.89,10.85,7.7l-7.94-9.21s-1.74.52-2.91,1.51Z"/><circle class="cls-3" cx="50.56" cy="64" r="18.52"/><path class="cls-4" d="M35.76,63.05s11.18,8.24,15.85-2.27l-15.1-3.29-.75,5.56Z"/><path class="cls-4" d="M69.07,64.28c-1.38-.37-2.92-.21-4.29.69-1.51.98-3.2,2.03-5.03,3.07-2.22,1.26-3.12,4.01-2.08,6.34,1.02,2.3,3.58,3.44,5.95,2.75,2.1-2.09,3.73-4.72,4.65-7.75.51-1.69.77-3.4.79-5.09Z"/><path class="cls-4" d="M61.84,67.29c2.01-.76,4.36-1.76,6.34-2.87,1.74-.98,2.79-2.85,2.72-4.85h0c-.14-4.18-4.78-6.6-8.28-4.32-1.51.98-3.2,2.03-5.03,3.07-2.22,1.26-3.12,4.01-2.08,6.34h0c1.08,2.42,3.85,3.57,6.33,2.62Z"/><circle class="cls-3" cx="47.27" cy="32.04" r="4.68"/><path class="cls-3" d="M42.59,32.21s.78,11.23-.35,18.81l12.19-4.44s-1.87-5.96-2.47-14.69l-9.36.33Z"/><path class="cls-5" d="M66.32,35.81l-2.26-2.65s-3.88,4.56-9.16,12.84c3.79,1.68,6.25,4.49,8.28,7.66,2.49-5.49,5.21-10.78,8.25-15.77l-5.1-2.08Z"/><circle class="cls-3" cx="67.58" cy="35.77" r="4.39"/><path class="cls-4" d="M60.95,74.56c-3.54,1.74-6.43,1.7-8.35,1.29-1.28-.27-2.06-1.58-1.74-2.84.06-.25.11-.5.13-.74.15-1.36-1.25-2.34-2.5-1.78-2.89,1.29-5.47.56-8.76-2.67-2.49-2.45-2.73-6.67-2.3-8.76l-5.26-5.63c-.06.31.23,5.98.03,8.18,0,.02,0,.03,0,.03h0c-1.14,8.81,4.11,17.51,12.9,20.18,7.82,2.37,16.09-.79,20.57-7.1h0c1.35-1.42,2.82-2.73,4.29-3.92-2.2.42-4.8,1.71-8.99,3.77Z"/><path class="cls-3" d="M64.04,63.03c2.01-.76,4.36-1.76,6.34-2.87,1.74-.98,2.79-2.85,2.72-4.85h0c-.14-4.18-4.78-6.6-8.28-4.32-1.51.98-3.2,2.03-5.03,3.07-2.22,1.26-3.12,4.01-2.08,6.34h0c1.08,2.42,3.85,3.57,6.33,2.62Z"/><path class="cls-3" d="M51.38,55.14c-2.16-2.15-5.33-5.12-8.38-7.26-2.1-1.48-4.85-1.67-7.13-.49h0c-4.74,2.46-4.99,9.17-.43,11.95,1.5.91,3.09,1.92,4.73,3.03,3.65,2.45,8.57,1.76,11.43-1.58h0c1.41-1.65,1.31-4.11-.22-5.64Z"/><path class="cls-3" d="M66.2,72.74c2.01-.76,4.36-1.76,6.34-2.87,1.74-.98,2.79-2.85,2.72-4.85h0c-.14-4.18-4.78-6.6-8.28-4.32-1.51.98-3.2,2.03-5.03,3.07-2.22,1.26-3.12,4.01-2.08,6.34h0c1.08,2.42,3.85,3.57,6.33,2.62Z"/></g></svg>