<?xml version="1.0" encoding="UTF-8"?>
<svg id="Layer_2" xmlns="http://www.w3.org/2000/svg" version="1.1" viewBox="0 0 123.5 149.1">
  <!-- Generator: Adobe Illustrator 29.1.0, SVG Export Plug-In . SVG Version: 2.1.0 Build 142)  -->
  <defs>
    <style>
      .st0 {
        fill: #557086;
      }

      .st1 {
        fill: #8ea3b2;
      }
    </style>
  </defs>
  <g id="Truth">
    <path class="st0" d="M123.5,30.3v99.8c0,10.5-8.5,19-19,19H19c-10.5,0-19-8.5-19-19V30.3c0-6.1,2.8-11.5,7.3-15-.8,1.9-1.3,4-1.3,6.2v94.8c0,8.6,7,15.5,15.5,15.5h80.4c8.6,0,15.5-7,15.5-15.5V21.5c0-2.2-.5-4.3-1.3-6.2,4.4,3.5,7.3,8.9,7.3,15Z"/>
    <path class="st1" d="M104.4,0H19C8.5,0,0,8.5,0,19v99.8c0,10.5,8.5,19,19,19h85.4c10.5,0,19-8.5,19-19V19C123.5,8.5,115,0,104.4,0ZM117.5,116.3c0,8.6-6.9,15.5-15.5,15.5H21.5c-8.6,0-15.5-7-15.5-15.5V21.5c0-2.2.5-4.3,1.3-6.2,2.4-5.5,7.9-9.4,14.2-9.4h80.4c6.4,0,11.9,3.9,14.2,9.4.8,1.9,1.3,4,1.3,6.2v94.8Z"/>
  </g>
</svg>