<?xml version="1.0" encoding="UTF-8"?><svg id="Layer_2" xmlns="http://www.w3.org/2000/svg" viewBox="0 0 103.47 117.84"><defs><style>.cls-1{fill:#fff;}.cls-2{fill:#0080ff;}</style></defs><g id="Truth"><rect class="cls-1" width="103.47" height="117.84" rx="11.53" ry="11.53"/><path class="cls-2" d="M4.35,12.47h94.78c3.45,0,6.25,2.8,6.25,6.25v80.41c0,3.45-2.8,6.25-6.25,6.25H4.35c-3.45,0-6.25-2.8-6.25-6.25V18.72c0-3.45,2.8-6.25,6.25-6.25Z" transform="translate(110.66 7.18) rotate(90)"/><rect class="cls-1" x="9.19" y="9.47" width="5.87" height="5.87" rx="2.93" ry="2.93"/><rect class="cls-1" x="88.41" y="9.47" width="5.87" height="5.87" rx="2.93" ry="2.93"/><rect class="cls-1" x="9.19" y="102.51" width="5.87" height="5.87" rx="2.93" ry="2.93"/><rect class="cls-1" x="88.41" y="102.51" width="5.87" height="5.87" rx="2.93" ry="2.93"/><path class="cls-1" d="M36.52,75.81c-3.01-1.66-3.77-4.37-1.96-7.99,1.36-2.56,3.32-2.11,3.92-1.81,1.21.6,1.51,2.86,1.51,2.86,0,0,.75.3,1.51-1.21s.45-3.32-1.81-4.52c-2.71-1.36-5.43.75-6.93,3.62-1.21,2.41-4.07,8.74,2.11,12.06,5.58,2.86,11.46-7.39,14.92-5.43,3.92,1.96,2.71,6.78,1.96,8.29-.75,1.51-2.11,1.51-2.71,1.21-3.17-1.66-2.41-5.13-2.41-5.13-.3-.15-1.36-.45-1.96.75-1.66,3.17.45,5.73,3.01,7.09,2.26,1.21,4.37.3,5.58-2.11,2.26-4.52,2.71-10.7-2.11-13.27-4.52-2.41-11.16,7.39-14.62,5.58Z"/><path class="cls-1" d="M71.04,39.32c-.15,0-.15.15-.15.3.15.75.75,2.56-.6,5.28-2.56,4.97-11.16,1.66-11.16,1.66,0,0-.9-5.28-1.66-6.48-.9-1.21-2.11.6-2.11.6,0,0,1.81,4.37,1.81,6.63-1.36-.9-3.77-3.92-5.58-4.97s-2.56,1.51-2.56,1.96c.75.45,7.09,6.18,10.7,9.04.45.75.9,1.81.6,2.41-.15.3-.75.15-1.66-.3-1.21-.6-2.71-2.26-3.92-2.86-.75-.45-1.06,0-1.21.3,0,0-.15.45-.3.45-.45.75-.9.15-1.36.9-1.21,2.26-.15,6.33,3.47,8.44.15,1.06.15,2.41-.15,2.86-.3.6-.9.45-1.36.15-.75-.45-4.82-4.22-4.82-4.22,0,0,.45-1.81.6-2.71.15-.6.15-.75,0-1.06s-.45-1.06-.75-1.66c-.3-.6-.9-.45-1.21.15-.45.75-1.06,3.17-1.06,3.17,0,0-3.92-3.32-4.07-3.47q-.15,0-.3.15c-.15.45-.3,1.21-.45,1.66-.15.75.45,1.81.75,2.11s3.01,2.71,3.01,2.71c0,0-.75,4.82-.75,5.58v.15s2.11.45,2.56-.45c.3-.75.6-3.17.6-3.17,0,0,3.62,3.17,4.97,3.92.9.45,2.11.6,3.01-1.21.9-1.66.75-3.47.6-4.52,1.36.15,2.11-.75,2.56-1.51.75-1.51.15-3.47.15-3.62.6,0,1.81,0,2.26-1.06.3-.6,0-1.66-.45-2.41.15.15.3.15.45.15,1.81.75,2.11-2.41,1.96-2.71-1.21-.75-3.77-1.96-5.13-3.32,5.73,2.11,10.7,1.51,12.96-3.01,1.36-2.56,1.21-4.22.9-5.13,0-.6-.9-.9-1.21-.9ZM57.92,60.13c-1.06,2.11-5.28-3.62-4.37-5.43.75.3,5.58,2.86,4.37,5.43Z"/><path class="cls-1" d="M68.78,43.39c1.06-1.96.45-4.22.3-4.67-.3-.6-1.66-.3-1.66,0,.3.9.6,1.96-.15,3.47-.9,1.66-2.56.3-2.56.3,0,0,2.11-3.01.45-5.58-.6-.75-1.51-1.36-2.11-1.51-.6,0-1.81.45-2.56,2.11-.75,1.96-.15,5.28,1.96,7.09,1.66,1.21,4.82,1.81,6.33-1.21ZM61.99,37.21c.15-.3.6,0,1.21.3.6.45,1.96,2.41.9,4.22-1.06-.6-2.71-3.32-2.11-4.52Z"/><path class="cls-1" d="M32.75,61.94l.6-.75-.15-.15c-.6-1.36-.6-3.01,0-4.37l17.49-38.59c.15-.45.75-.75,1.21-.75h0c.6,0,1.06.3,1.21.75l6.33,14.17.9-.3-6.33-14.17c-.3-.75-1.21-1.36-2.11-1.36h0c-.9,0-1.66.45-2.11,1.36l-17.34,38.59c-.75,1.66-.75,3.47,0,5.13l.3.45Z"/><path class="cls-1" d="M69.98,53.19l-.75.6,1.21,2.71c.6,1.36.6,3.01,0,4.37l-17.34,38.74c-.15.45-.75.75-1.21.75h0c-.6,0-1.06-.3-1.21-.75l-3.01-6.63-.9.3,3.01,6.78c.3.75,1.21,1.36,2.11,1.36h0c.9,0,1.66-.45,2.11-1.36l17.34-38.59c.75-1.66.75-3.47,0-5.13l-1.36-3.17Z"/></g></svg>